<?xml version="1.0" encoding="utf-8"?>
<!-- Generator: Adobe Illustrator 19.2.1, SVG Export Plug-In . SVG Version: 6.00 Build 0)  -->
<svg version="1.1" id="Capa_1" xmlns="http://www.w3.org/2000/svg" xmlns:xlink="http://www.w3.org/1999/xlink" x="0px" y="0px"
	 viewBox="0 0 24 24" style="enable-background:new 0 0 24 24;" xml:space="preserve">
<style type="text/css">
	.st0{fill:#E8EAED;}
	.st1{display:none;}
	.st2{display:inline;fill:#90FF00;}
</style>
<path class="st0" d="M12-937l-7.2-5.4c-0.3-0.2-0.4-0.4-0.6-0.7S4-943.7,4-944v-12c0-0.5,0.2-1,0.6-1.4S5.5-958,6-958h12
	c0.6,0,1,0.2,1.4,0.6s0.6,0.9,0.6,1.4v12c0,0.3-0.1,0.6-0.2,0.9s-0.3,0.5-0.6,0.7L12-937z M12-939.5l6-4.5v-12H6v12L12-939.5z
	 M10.9-945l5.7-5.7l-1.4-1.5l-4.3,4.3l-2-2.1l-1.5,1.4L10.9-945z M12-956H6h12H12z"/>
<g class="st1">
	<path class="st2" d="M12,22.5l-7.2-5.4c-0.3-0.2-0.4-0.4-0.6-0.7C4.1,16.1,4,15.8,4,15.5v-12c0-0.5,0.2-1,0.6-1.4S5.4,1.5,6,1.5h12
		c0.5,0,1,0.2,1.4,0.6S20,2.9,20,3.5v12c0,0.3-0.1,0.6-0.2,0.9s-0.3,0.5-0.6,0.7L12,22.5z M12,20l6-4.5v-12H6v12L12,20z M10.9,14.5
		l5.7-5.6l-1.4-1.5l-4.3,4.2l-2-2L7.4,11L10.9,14.5z M12,3.5H6h12H12z"/>
</g>
<g>
	<path class="st0" d="M8.4,17.7l3.6-2.1l3.6,2.2l-0.9-4.1l3.1-2.7l-4.1-0.4L12,6.8l-1.6,3.8L6.2,11l3.1,2.7L8.4,17.7z M5,22.5
		l1.8-7.9L0.7,9.2l8.1-0.7L12,1l3.2,7.5l8.1,0.7l-6.2,5.3l1.8,7.9l-7-4.2L5,22.5z"/>
</g>
</svg>
