<?xml version="1.0" encoding="utf-8"?>
<!-- Generator: Adobe Illustrator 19.2.1, SVG Export Plug-In . SVG Version: 6.00 Build 0)  -->
<svg version="1.1" id="Capa_1" xmlns="http://www.w3.org/2000/svg" xmlns:xlink="http://www.w3.org/1999/xlink" x="0px" y="0px"
	 viewBox="0 0 24 24" style="enable-background:new 0 0 24 24;" xml:space="preserve">
<style type="text/css">
	.st0{fill:#E8EAED;}
</style>
<path class="st0" d="M12-937l-7.2-5.4c-0.3-0.2-0.4-0.4-0.6-0.7S4-943.7,4-944v-12c0-0.5,0.2-1,0.6-1.4S5.5-958,6-958h12
	c0.6,0,1,0.2,1.4,0.6s0.6,0.9,0.6,1.4v12c0,0.3-0.1,0.6-0.2,0.9s-0.3,0.5-0.6,0.7L12-937z M12-939.5l6-4.5v-12H6v12L12-939.5z
	 M10.9-945l5.7-5.7l-1.4-1.5l-4.3,4.3L8.9-950l-1.5,1.4L10.9-945z M12-956H6h12H12z"/>
<g>
	<path class="st0" d="M12,22.5l-7.2-5.4c-0.3-0.2-0.4-0.4-0.6-0.7C4.1,16.1,4,15.8,4,15.5v-12c0-0.5,0.2-1,0.6-1.4
		C5,1.7,5.4,1.5,6,1.5h12c0.5,0,1,0.2,1.4,0.6C19.8,2.5,20,2.9,20,3.5v12c0,0.3-0.1,0.6-0.2,0.9c-0.1,0.3-0.3,0.5-0.6,0.7L12,22.5z
		 M12,20l6-4.5v-12H6v12L12,20z M12,3.5H6h12H12z"/>
</g>
</svg>
